<?xml version="1.0" encoding="utf-8"?>
<!DOCTYPE svg PUBLIC "-//W3C//DTD SVG 20010904//EN" "http://www.w3.org/TR/2001/REC-SVG-20010904/DTD/svg10.dtd">
<svg version="1.0" xmlns="http://www.w3.org/2000/svg" width="476pt" height="476pt" viewBox="0 0 476 476" style="" preserveAspectRatio="xMidYMid meet">
<g fill="#FCFCFCFD" stroke="#FCFCFCFD">
<path d="M 226.178 97.043 C 195.498 100.887 168.327 114.384 147.450 136.150 C 125.718 158.808 110.268 188.552 99.998 227.500 C 96.466 240.895 91.000 268.705 91.000 273.277 C 91.000 279.990 82.269 290.355 73.026 294.612 C 43.295 308.308 31.247 319.542 29.395 335.292 C 28.897 339.531 29.223 341.981 30.872 346.387 C 36.236 360.723 42.306 369.108 53.328 377.403 C 66.187 387.081 69.105 392.587 65.876 401.084 C 64.797 403.924 64.144 406.478 64.426 406.759 C 64.707 407.041 66.189 406.475 67.719 405.503 C 79.373 398.095 82.871 388.330 77.491 378.217 C 74.528 372.647 72.731 369.689 71.890 369.000 C 67.128 365.100 65.887 348.995 69.724 340.913 C 70.922 338.390 73.990 334.002 76.543 331.163 C 81.857 325.253 85.306 324.382 87.172 328.478 C 88.166 330.659 87.883 331.493 84.819 335.427 C 81.574 339.591 81.248 340.689 80.045 351.477 L 78.755 363.057 82.460 368.638 C 87.289 375.911 89.000 380.958 89.000 387.929 C 89.000 395.220 85.464 402.541 79.339 407.933 L 74.846 411.887 74.309 421.194 C 73.799 430.011 75.212 459.996 76.620 470.250 L 77.272 475.000 253.000 475.000 L 428.728 475.000 429.364 470.360 C 431.290 456.306 428.692 438.907 421.847 420.027 L 419.500 413.553 413.000 413.240 C 400.625 412.644 393.640 408.822 389.907 400.603 C 386.920 394.026 387.457 391.032 393.829 378.743 L 399.658 367.500 397.379 360.500 C 396.126 356.650 395.078 352.724 395.050 351.776 C 395.023 350.827 393.691 349.374 392.090 348.547 C 388.913 346.904 388.081 345.443 388.782 342.739 C 390.164 337.411 403.495 342.171 407.780 349.523 C 409.747 352.897 410.040 354.561 409.714 360.500 C 409.323 367.640 408.341 370.193 400.159 385.352 C 398.421 388.570 397.000 392.542 397.000 394.178 C 397.000 400.143 404.915 404.981 414.691 404.994 C 419.377 405.001 420.755 403.872 418.423 401.936 C 414.226 398.452 412.471 388.672 415.500 385.643 C 416.325 384.818 417.000 383.790 417.000 383.358 C 417.000 382.926 420.520 379.182 424.823 375.037 C 438.432 361.925 449.738 342.032 450.757 329.404 C 451.187 324.073 450.863 322.504 448.169 316.904 C 441.649 303.345 433.584 298.844 409.860 295.523 C 398.113 293.879 394.340 292.743 391.886 290.108 C 389.146 287.167 388.894 284.702 391.007 281.500 C 392.678 278.969 392.987 276.782 392.990 267.500 C 393.002 224.946 382.557 183.925 363.883 153.186 C 361.747 149.671 360.000 146.660 360.000 146.494 C 360.000 145.773 352.979 137.942 346.518 131.456 C 330.296 115.174 307.630 104.107 279.000 98.490 C 268.977 96.524 237.255 95.655 226.178 97.043 M 242.782 213.498 C 244.844 214.329 249.041 217.782 252.204 221.248 L 257.908 227.500 269.704 227.541 C 284.181 227.591 288.943 229.459 292.053 236.309 C 297.078 247.375 293.075 259.933 280.543 272.425 C 266.425 286.497 247.835 292.374 224.837 290.034 C 205.683 288.086 194.365 283.842 184.655 274.967 C 176.553 267.563 175.473 261.779 180.577 253.139 C 182.314 250.199 182.309 250.179 178.820 246.103 C 170.997 236.964 171.203 224.230 179.226 220.906 C 183.144 219.284 191.190 220.326 198.730 223.433 C 207.736 227.144 209.108 226.900 215.508 220.449 C 218.537 217.395 222.474 214.263 224.257 213.488 C 228.548 211.623 238.141 211.628 242.782 213.498 M 213.246 127.351 C 214.757 129.742 218.695 134.235 221.996 137.335 C 225.298 140.435 228.000 143.458 228.000 144.052 C 228.000 146.036 225.946 149.000 224.570 149.000 C 223.482 149.000 223.589 150.218 225.105 155.089 C 230.108 171.163 225.156 189.228 212.565 200.833 C 201.278 211.237 182.626 215.778 166.500 212.049 C 142.512 206.502 128.366 183.601 134.399 160.082 C 136.417 152.214 138.798 148.207 145.934 140.672 C 152.214 134.041 160.999 128.803 168.908 126.975 C 176.343 125.256 190.956 126.226 198.000 128.906 C 201.025 130.057 203.621 130.999 203.769 130.999 C 203.917 131.000 203.754 129.869 203.407 128.487 C 202.605 125.288 204.468 122.999 207.872 123.002 C 209.884 123.003 211.144 124.022 213.246 127.351 M 275.251 126.727 C 276.815 128.142 279.269 128.472 288.830 128.550 C 298.677 128.631 301.635 129.050 307.764 131.228 C 315.451 133.960 323.220 138.466 326.732 142.231 C 330.998 146.802 335.899 157.503 337.123 164.916 C 339.285 178.004 335.201 193.997 327.696 201.839 C 321.165 208.664 305.720 214.000 292.500 214.000 C 284.616 214.000 272.384 211.257 266.201 208.102 C 256.665 203.238 248.054 190.614 245.899 178.340 C 244.656 171.259 245.938 160.296 248.680 154.544 C 250.250 151.252 250.245 150.929 248.594 149.104 C 245.494 145.679 246.899 142.800 253.204 139.656 C 256.341 138.092 261.516 134.176 264.704 130.953 C 270.965 124.624 272.325 124.079 275.251 126.727 "/></g>
<g fill="#493425FD" stroke="#493425FD">
<path d="M 229.500 87.989 C 200.731 91.096 175.197 100.988 156.000 116.464 C 117.798 147.262 94.672 194.229 83.488 263.730 C 82.650 268.937 81.469 274.165 80.862 275.349 C 78.291 280.368 73.066 284.417 63.113 289.105 C 42.227 298.943 30.087 308.985 23.910 321.531 C 17.928 333.682 18.934 345.361 27.330 361.262 C 32.496 371.046 37.800 377.116 48.449 385.431 C 53.079 389.047 57.141 392.870 57.477 393.929 C 57.813 394.987 57.367 397.574 56.486 399.677 C 53.927 405.781 54.143 410.597 57.109 413.563 C 58.503 414.958 60.962 416.238 62.572 416.409 L 65.500 416.719 66.103 438.109 C 66.435 449.874 67.059 462.988 67.491 467.250 L 68.276 475.000 72.774 475.000 L 77.272 475.000 76.620 470.250 C 75.212 459.996 73.799 430.011 74.309 421.194 L 74.846 411.887 79.339 407.933 C 85.464 402.541 89.000 395.220 89.000 387.929 C 89.000 380.958 87.289 375.911 82.460 368.638 L 78.755 363.057 80.045 351.477 C 81.248 340.689 81.574 339.591 84.819 335.427 C 87.883 331.493 88.166 330.659 87.172 328.478 C 85.306 324.382 81.857 325.253 76.543 331.163 C 69.564 338.926 67.548 343.926 67.537 353.500 C 67.530 359.426 68.014 362.408 69.403 365.000 C 70.435 366.925 71.554 368.725 71.890 369.000 C 72.731 369.689 74.528 372.647 77.491 378.217 C 82.871 388.330 79.373 398.095 67.719 405.503 C 66.189 406.475 64.707 407.041 64.426 406.759 C 64.144 406.478 64.797 403.924 65.876 401.084 C 69.105 392.587 66.187 387.081 53.328 377.403 C 42.306 369.108 36.236 360.723 30.872 346.387 C 29.223 341.981 28.897 339.531 29.395 335.292 C 31.247 319.542 43.295 308.308 73.026 294.612 C 82.269 290.355 91.000 279.990 91.000 273.277 C 91.000 268.705 96.466 240.895 99.998 227.500 C 110.976 185.865 128.245 154.131 152.333 131.330 C 170.062 114.548 189.472 104.591 215.817 98.764 C 229.110 95.823 264.712 95.588 278.500 98.349 C 307.925 104.241 330.211 115.089 346.518 131.456 C 352.979 137.942 360.000 145.773 360.000 146.494 C 360.000 146.660 361.747 149.671 363.883 153.186 C 382.557 183.925 393.002 224.946 392.990 267.500 C 392.987 276.782 392.678 278.969 391.007 281.500 C 388.894 284.702 389.146 287.167 391.886 290.108 C 394.340 292.743 398.113 293.879 409.860 295.523 C 433.584 298.844 441.649 303.345 448.169 316.904 C 450.863 322.504 451.187 324.073 450.757 329.404 C 449.738 342.032 438.432 361.925 424.823 375.037 C 420.520 379.182 417.000 382.926 417.000 383.358 C 417.000 383.790 416.325 384.818 415.500 385.643 C 412.471 388.672 414.226 398.452 418.423 401.936 C 420.755 403.872 419.377 405.001 414.691 404.994 C 404.915 404.981 397.000 400.143 397.000 394.178 C 397.000 392.542 398.421 388.570 400.159 385.352 C 408.341 370.193 409.323 367.640 409.714 360.500 C 410.040 354.561 409.747 352.897 407.780 349.523 C 403.495 342.171 390.164 337.411 388.782 342.739 C 388.081 345.443 388.913 346.904 392.090 348.547 C 393.691 349.374 395.023 350.827 395.050 351.776 C 395.078 352.724 396.126 356.650 397.379 360.500 L 399.658 367.500 393.829 378.743 C 387.457 391.032 386.920 394.026 389.907 400.603 C 393.640 408.822 400.625 412.644 413.000 413.240 L 419.500 413.553 421.847 420.027 C 428.058 437.157 430.622 452.367 429.641 466.250 L 429.022 475.000 433.382 475.000 L 437.742 475.000 438.419 467.231 C 439.576 453.970 436.425 434.615 430.382 417.862 C 428.297 412.081 428.015 410.262 428.903 408.313 C 430.726 404.313 430.159 401.525 426.896 398.437 C 422.844 394.603 421.857 392.026 423.475 389.500 C 424.179 388.400 428.325 383.889 432.688 379.475 C 442.204 369.847 447.791 361.846 453.532 349.623 C 460.869 334.003 461.594 324.905 456.411 313.500 C 449.127 297.473 436.929 290.273 411.552 287.020 C 406.630 286.389 402.300 285.685 401.929 285.456 C 401.558 285.227 401.236 275.918 401.213 264.770 C 401.111 215.108 387.989 170.045 364.443 138.500 C 345.675 113.356 319.300 97.932 282.243 90.428 C 268.344 87.614 243.578 86.469 229.500 87.989 "/></g>
<g fill="#493425FD" stroke="#493425FD">
<path d="M 224.257 213.488 C 222.474 214.263 218.537 217.395 215.508 220.449 C 209.108 226.900 207.736 227.144 198.730 223.433 C 191.190 220.326 183.144 219.284 179.226 220.906 C 171.203 224.230 170.997 236.964 178.820 246.103 C 182.309 250.179 182.314 250.199 180.577 253.139 C 175.473 261.779 176.553 267.563 184.655 274.967 C 194.365 283.842 205.683 288.086 224.837 290.034 C 247.835 292.374 266.425 286.497 280.543 272.425 C 293.075 259.933 297.078 247.375 292.053 236.309 C 288.943 229.459 284.181 227.591 269.704 227.541 L 257.908 227.500 252.204 221.248 C 249.041 217.782 244.844 214.329 242.782 213.498 C 238.141 211.628 228.548 211.623 224.257 213.488 M 240.386 219.956 C 241.769 220.483 244.611 223.155 246.701 225.896 C 252.338 233.290 256.704 235.049 268.922 234.852 C 280.634 234.662 284.406 235.858 285.935 240.244 C 288.839 248.573 285.484 257.257 275.508 267.233 C 264.363 278.377 251.452 283.216 232.974 283.172 C 203.571 283.102 178.354 268.933 186.624 257.127 C 188.482 254.474 190.270 254.573 199.009 257.809 C 211.124 262.294 230.568 264.107 244.674 262.067 C 257.942 260.147 261.870 258.984 262.574 256.765 C 263.863 252.706 261.094 252.134 249.776 254.123 C 216.681 259.936 182.971 249.918 180.302 233.477 C 179.186 226.594 184.422 225.110 194.000 229.595 C 200.712 232.738 208.761 233.756 213.004 231.998 C 214.696 231.297 217.637 228.905 219.540 226.682 C 221.443 224.459 224.238 221.824 225.750 220.827 C 228.772 218.834 236.262 218.389 240.386 219.956 "/></g>
<g fill="#493425FD" stroke="#493425FD">
<path d="M 204.011 124.487 C 203.303 125.340 203.046 127.046 203.407 128.487 C 203.754 129.869 203.917 131.000 203.769 130.999 C 203.621 130.999 201.025 130.057 198.000 128.906 C 190.956 126.226 176.343 125.256 168.908 126.975 C 157.859 129.529 144.739 139.411 138.230 150.082 C 134.596 156.038 132.681 165.462 133.291 174.385 C 135.470 206.287 171.531 223.231 203.340 207.299 C 221.735 198.086 231.326 175.079 225.105 155.089 C 223.589 150.218 223.482 149.000 224.570 149.000 C 225.946 149.000 228.000 146.036 228.000 144.052 C 228.000 143.458 225.298 140.435 221.996 137.335 C 218.695 134.235 214.757 129.742 213.246 127.351 C 211.144 124.022 209.884 123.003 207.872 123.002 C 206.427 123.001 204.690 123.669 204.011 124.487 M 191.540 134.532 C 194.818 135.375 199.667 137.400 202.316 139.032 C 204.965 140.664 207.334 142.000 207.581 142.000 C 208.798 142.000 214.279 149.077 216.487 153.500 C 219.897 160.329 220.668 168.845 218.605 176.898 C 212.023 202.588 181.150 213.966 156.297 199.860 C 150.414 196.521 145.968 191.409 142.789 184.330 C 139.577 177.175 139.801 164.574 143.279 156.822 C 151.350 138.832 171.701 129.432 191.540 134.532 "/></g>
<g fill="#493425FD" stroke="#493425FD">
<path d="M 264.704 130.953 C 261.516 134.176 256.341 138.092 253.204 139.656 C 246.899 142.800 245.494 145.679 248.594 149.104 C 250.245 150.929 250.250 151.252 248.680 154.544 C 245.938 160.296 244.656 171.259 245.899 178.340 C 248.054 190.614 256.665 203.238 266.201 208.102 C 272.384 211.257 284.616 214.000 292.500 214.000 C 305.720 214.000 321.165 208.664 327.696 201.839 C 335.201 193.997 339.285 178.004 337.123 164.916 C 335.899 157.503 330.998 146.802 326.732 142.231 C 323.220 138.466 315.451 133.960 307.764 131.228 C 301.635 129.050 298.677 128.631 288.830 128.550 C 279.269 128.472 276.815 128.142 275.251 126.727 C 272.325 124.079 270.965 124.624 264.704 130.953 M 303.068 137.610 C 314.903 141.119 323.276 147.631 327.065 156.273 C 330.223 163.477 330.929 177.621 328.505 185.146 C 324.984 196.079 320.570 200.199 308.321 203.983 C 298.007 207.168 288.958 207.534 279.826 205.136 C 262.596 200.611 254.190 190.442 253.261 173.000 C 252.718 162.810 254.886 155.830 260.704 149.033 C 264.860 144.177 272.990 138.626 278.094 137.159 C 283.566 135.587 297.065 135.830 303.068 137.610 "/></g>
<g fill="#FCFCFCFD" stroke="#FCFCFCFD">
<path d="M 168.487 134.799 C 156.798 138.841 147.831 146.674 143.279 156.822 C 139.801 164.574 139.577 177.175 142.789 184.330 C 145.968 191.409 150.414 196.521 156.297 199.860 C 171.591 208.540 190.158 207.914 204.047 198.251 C 218.209 188.397 223.825 168.196 216.487 153.500 C 214.279 149.077 208.798 142.000 207.581 142.000 C 207.334 142.000 204.965 140.664 202.316 139.032 C 192.867 133.210 178.340 131.392 168.487 134.799 M 198.021 165.672 C 199.578 166.591 201.630 169.070 202.581 171.180 C 204.041 174.418 204.127 175.632 203.132 178.955 C 201.477 184.479 197.914 187.000 191.765 187.000 C 187.417 187.000 186.362 186.562 183.275 183.475 C 179.955 180.155 179.779 179.650 180.247 174.785 C 180.650 170.591 181.335 169.090 183.887 166.809 C 187.599 163.493 193.526 163.016 198.021 165.672 "/></g>
<g fill="#FCFCFCFD" stroke="#FCFCFCFD">
<path d="M 278.094 137.159 C 268.713 139.855 258.479 149.463 254.912 158.921 C 252.215 166.074 252.618 179.034 255.758 186.103 C 263.552 203.647 285.374 211.070 308.321 203.983 C 320.570 200.199 324.984 196.079 328.505 185.146 C 330.929 177.621 330.223 163.477 327.065 156.273 C 321.645 143.911 306.759 135.898 289.568 136.090 C 285.131 136.140 279.967 136.621 278.094 137.159 M 291.088 167.280 C 292.948 168.534 295.033 170.672 295.721 172.030 C 298.413 177.351 296.638 182.979 291.088 186.720 C 283.140 192.076 273.071 186.643 273.071 177.000 C 273.071 172.602 274.808 169.424 278.567 166.946 C 282.467 164.375 286.955 164.495 291.088 167.280 "/></g>
<g fill="#FCFCFCFD" stroke="#FCFCFCFD">
<path d="M 225.926 220.757 C 224.510 221.715 221.135 224.840 218.426 227.699 L 213.500 232.899 206.500 232.602 C 201.438 232.387 197.977 231.573 194.000 229.662 C 187.827 226.696 182.863 226.256 180.993 228.508 C 177.930 232.199 182.832 241.882 189.890 246.081 C 194.401 248.765 205.210 253.123 205.826 252.507 C 206.096 252.238 206.807 252.408 207.408 252.886 C 211.099 255.820 235.196 256.798 247.000 254.491 C 258.828 252.180 261.894 252.090 262.512 254.038 C 263.895 258.394 260.976 259.708 244.674 262.067 C 230.568 264.107 211.124 262.294 199.009 257.809 C 190.270 254.573 188.482 254.474 186.624 257.127 C 182.765 262.635 186.097 268.666 196.438 274.894 C 210.363 283.281 239.141 285.970 254.000 280.273 C 254.825 279.957 255.987 279.592 256.582 279.462 C 261.040 278.491 270.116 272.624 275.514 267.226 C 285.484 257.257 288.838 248.571 285.935 240.244 C 284.249 235.406 280.923 234.577 264.891 234.996 C 257.334 235.194 251.604 232.327 246.701 225.896 C 244.611 223.155 241.769 220.483 240.386 219.956 C 236.325 218.413 228.769 218.831 225.926 220.757 M 241.562 223.633 C 244.980 225.872 245.358 227.791 242.265 227.200 L 239.712 226.712 241.879 228.879 C 243.643 230.643 243.843 231.425 242.955 233.084 C 241.652 235.518 237.679 235.332 237.199 232.814 C 237.023 231.887 237.468 229.793 238.189 228.161 C 239.362 225.506 239.335 225.315 237.925 226.347 C 235.336 228.243 234.013 233.297 235.554 235.404 C 236.322 236.454 237.374 236.887 238.088 236.446 C 238.868 235.963 239.051 236.108 238.595 236.845 C 238.166 237.540 238.539 238.000 239.531 238.000 C 241.740 238.000 244.925 234.044 244.967 231.250 C 245.013 228.112 247.612 228.419 249.209 231.750 C 249.934 233.263 251.196 234.500 252.013 234.500 C 252.831 234.500 253.964 235.090 254.532 235.812 C 255.262 236.740 258.040 237.067 264.032 236.928 C 268.689 236.821 273.962 236.714 275.749 236.692 C 277.820 236.665 279.900 237.497 281.484 238.985 C 284.498 241.816 285.918 247.805 283.882 249.094 C 283.122 249.576 282.893 249.976 283.372 249.985 C 283.852 249.993 283.685 250.675 283.000 251.500 C 282.315 252.325 282.047 253.000 282.403 253.000 C 284.141 253.000 278.997 260.197 273.158 265.933 C 265.872 273.091 260.170 276.527 252.057 278.650 C 249.064 279.434 246.139 280.404 245.557 280.806 C 242.934 282.618 207.727 279.060 205.415 276.749 C 205.004 276.337 204.062 276.000 203.322 276.000 C 201.210 276.000 190.391 268.246 188.521 265.391 C 186.236 261.904 188.048 257.000 191.621 257.000 C 192.930 257.000 194.000 257.395 194.000 257.879 C 194.000 259.109 198.752 260.875 203.500 261.408 C 205.700 261.655 207.050 261.896 206.500 261.944 C 204.163 262.146 208.440 263.707 212.297 264.060 C 221.763 264.925 246.947 264.416 253.242 263.232 C 261.557 261.668 265.587 259.989 263.778 258.842 C 262.779 258.208 262.773 258.027 263.750 258.015 C 264.542 258.006 265.000 256.513 265.000 253.941 C 265.000 251.709 264.588 250.136 264.085 250.447 C 263.582 250.758 263.020 250.639 262.835 250.182 C 262.651 249.726 259.350 249.933 255.500 250.642 C 239.762 253.541 229.826 254.197 220.000 252.986 C 211.501 251.938 207.979 250.988 196.237 246.575 C 194.442 245.901 191.742 244.222 190.237 242.844 C 188.732 241.467 186.375 239.476 185.000 238.420 C 182.270 236.323 181.493 231.387 183.565 229.301 C 184.491 228.368 185.173 228.417 186.628 229.519 C 187.658 230.298 189.305 230.951 190.290 230.968 C 191.274 230.986 193.844 231.900 196.000 233.000 C 198.928 234.494 201.894 235.000 207.720 235.000 C 214.580 235.000 215.678 234.745 216.841 232.883 C 218.156 230.778 218.182 230.784 221.469 233.970 C 223.686 236.119 225.010 236.793 225.488 236.019 C 225.881 235.383 226.799 235.093 227.528 235.372 C 228.257 235.652 229.354 235.279 229.965 234.542 C 231.436 232.770 230.947 226.194 229.298 225.561 C 227.291 224.791 227.761 223.035 230.250 221.999 C 233.019 220.846 238.522 221.640 241.562 223.633 M 227.972 232.534 C 226.017 234.890 223.117 234.314 222.392 231.427 C 221.679 228.586 222.485 227.388 225.500 226.811 C 228.050 226.323 229.788 230.346 227.972 232.534 "/></g>
<g fill="#F5C100FD" stroke="#F5C100FD">
<path d="M 230.250 221.999 C 227.761 223.035 227.291 224.791 229.298 225.561 C 230.947 226.194 231.436 232.770 229.965 234.542 C 229.354 235.279 228.257 235.652 227.528 235.372 C 226.799 235.093 225.881 235.383 225.488 236.019 C 225.010 236.793 223.686 236.119 221.469 233.970 C 218.182 230.784 218.156 230.778 216.841 232.883 C 215.678 234.745 214.580 235.000 207.720 235.000 C 201.894 235.000 198.928 234.494 196.000 233.000 C 193.844 231.900 191.274 230.986 190.290 230.968 C 189.305 230.951 187.658 230.298 186.628 229.519 C 185.173 228.417 184.491 228.368 183.565 229.301 C 181.493 231.387 182.270 236.323 185.000 238.420 C 186.375 239.476 188.732 241.467 190.237 242.844 C 191.742 244.222 194.442 245.901 196.237 246.575 C 207.979 250.988 211.501 251.938 220.000 252.986 C 229.826 254.197 239.762 253.541 255.500 250.642 C 259.350 249.933 262.651 249.726 262.835 250.182 C 263.020 250.639 263.582 250.758 264.085 250.447 C 264.588 250.136 265.000 251.709 265.000 253.941 C 265.000 256.513 264.542 258.006 263.750 258.015 C 262.773 258.027 262.779 258.208 263.778 258.842 C 265.587 259.989 261.557 261.668 253.242 263.232 C 246.947 264.416 221.763 264.925 212.297 264.060 C 208.440 263.707 204.163 262.146 206.500 261.944 C 207.050 261.896 205.700 261.655 203.500 261.408 C 198.752 260.875 194.000 259.109 194.000 257.879 C 194.000 257.395 192.930 257.000 191.621 257.000 C 188.048 257.000 186.236 261.904 188.521 265.391 C 190.391 268.246 201.210 276.000 203.322 276.000 C 204.062 276.000 205.004 276.337 205.415 276.749 C 207.727 279.060 242.934 282.618 245.557 280.806 C 246.139 280.404 249.064 279.434 252.057 278.650 C 260.170 276.527 265.872 273.091 273.158 265.933 C 278.997 260.197 284.141 253.000 282.403 253.000 C 282.047 253.000 282.315 252.325 283.000 251.500 C 283.685 250.675 283.852 249.993 283.372 249.985 C 282.893 249.976 283.122 249.576 283.882 249.094 C 285.918 247.805 284.498 241.816 281.484 238.985 C 279.900 237.497 277.820 236.665 275.749 236.692 C 273.962 236.714 268.689 236.821 264.032 236.928 C 258.040 237.067 255.262 236.740 254.532 235.812 C 253.964 235.090 252.831 234.500 252.013 234.500 C 251.196 234.500 249.934 233.263 249.209 231.750 C 247.612 228.419 245.013 228.112 244.967 231.250 C 244.925 234.044 241.740 238.000 239.531 238.000 C 238.539 238.000 238.166 237.540 238.595 236.845 C 239.051 236.108 238.868 235.963 238.088 236.446 C 237.374 236.887 236.322 236.454 235.554 235.404 C 234.074 233.381 235.300 228.283 237.694 226.500 C 238.432 225.950 238.916 225.707 238.768 225.959 C 238.621 226.211 239.924 226.709 241.663 227.065 C 244.031 227.549 244.702 227.386 244.329 226.416 C 242.996 222.940 234.437 220.255 230.250 221.999 "/></g>
<g fill="#493425FD" stroke="#493425FD">
<path d="M 78.253 57.250 C 77.707 57.938 76.691 60.300 75.995 62.500 C 74.649 66.757 70.839 73.901 67.749 77.965 C 64.708 81.962 56.166 87.878 52.419 88.581 C 48.923 89.237 46.557 91.796 47.820 93.557 C 48.194 94.079 50.391 95.788 52.702 97.356 C 63.712 104.823 72.233 117.916 75.572 132.500 C 77.694 141.767 78.651 144.000 80.500 144.000 C 82.295 144.000 82.906 142.631 86.523 130.500 C 91.402 114.140 98.332 102.773 107.602 95.925 C 111.066 93.366 112.738 91.480 112.376 90.538 C 112.071 89.741 109.399 87.723 106.439 86.052 C 98.612 81.635 90.887 73.276 86.064 64.007 C 82.001 56.196 80.274 54.703 78.253 57.250 M 83.293 70.919 C 86.481 76.316 93.713 84.473 98.392 87.949 L 103.034 91.397 98.671 95.949 C 92.389 102.502 87.137 110.660 84.473 118.000 C 83.775 119.925 82.685 122.826 82.052 124.447 L 80.900 127.393 77.501 119.573 C 73.269 109.840 69.967 104.947 63.208 98.393 L 57.916 93.262 62.879 90.078 C 68.895 86.217 73.932 80.464 77.542 73.329 C 79.025 70.398 80.538 68.000 80.904 68.000 C 81.269 68.000 82.345 69.314 83.293 70.919 "/></g>
<g fill="#493425FD" stroke="#493425FD">
<path d="M 423.666 135.347 C 419.368 144.649 414.565 149.972 407.816 152.911 C 404.892 154.185 401.825 155.561 401.000 155.970 C 397.857 157.529 398.910 159.833 404.446 163.508 C 414.631 170.268 422.359 181.565 424.983 193.531 C 426.778 201.712 427.003 202.141 429.323 201.808 C 431.084 201.556 432.038 199.773 434.572 192.000 C 439.624 176.498 445.009 168.198 453.806 162.347 C 456.983 160.235 458.989 158.211 458.806 157.305 C 458.638 156.472 456.475 154.723 454.000 153.418 C 446.768 149.606 439.342 142.425 434.902 134.951 C 429.446 125.767 428.070 125.816 423.666 135.347 M 437.458 148.557 C 440.231 151.339 443.850 154.579 445.500 155.759 L 448.500 157.903 445.891 160.362 C 440.870 165.091 436.219 171.555 433.018 178.250 C 431.243 181.963 429.675 185.000 429.533 185.000 C 429.391 185.000 427.789 181.983 425.974 178.295 C 424.060 174.408 420.220 169.067 416.836 165.588 C 413.626 162.287 411.000 159.260 411.000 158.861 C 411.000 158.461 411.950 157.833 413.111 157.465 C 416.536 156.378 422.526 150.380 426.136 144.421 C 429.484 138.897 429.507 138.881 430.958 141.185 C 431.760 142.458 434.685 145.776 437.458 148.557 "/></g>
<g fill="#493425FD" stroke="#493425FD">
<path d="M 278.567 166.946 C 274.808 169.424 273.071 172.602 273.071 177.000 C 273.071 183.473 278.366 188.980 284.602 188.993 C 288.300 189.001 293.977 185.415 295.721 181.970 C 298.413 176.649 296.638 171.021 291.088 167.280 C 286.955 164.495 282.467 164.375 278.567 166.946 "/></g>
<g fill="#493425FD" stroke="#493425FD">
<path d="M 183.887 166.809 C 181.335 169.090 180.650 170.591 180.247 174.785 C 179.779 179.650 179.955 180.155 183.275 183.475 C 186.362 186.562 187.417 187.000 191.765 187.000 C 197.914 187.000 201.477 184.479 203.132 178.955 C 206.453 167.870 192.532 159.085 183.887 166.809 "/></g>
<g fill="#FCFCFCFD" stroke="#FCFCFCFD">
<path d="M 454.044 348.691 C 448.949 360.019 442.021 370.031 432.875 379.284 C 428.409 383.803 424.179 388.400 423.475 389.500 C 421.857 392.026 422.844 394.603 426.896 398.437 C 430.167 401.532 430.726 404.313 428.888 408.346 C 427.991 410.314 428.201 411.919 429.974 416.643 C 431.183 419.864 433.255 426.325 434.578 431.000 C 436.121 436.452 436.763 437.887 436.366 435.000 C 436.027 432.525 434.195 426.031 432.297 420.568 C 429.483 412.474 429.044 410.199 429.922 408.271 C 431.751 404.257 431.140 401.520 427.501 397.432 C 425.576 395.269 424.001 392.542 424.001 391.371 C 424.000 390.111 425.940 387.453 428.750 384.863 C 435.659 378.495 442.752 370.289 446.781 364.000 C 450.887 357.592 458.140 342.917 457.760 341.786 C 457.617 341.359 455.945 344.466 454.044 348.691 "/></g>
<g fill="#FCFCFCFD" stroke="#FCFCFCFD">
<path d="M 426.136 144.421 C 422.526 150.380 416.536 156.378 413.111 157.465 C 411.950 157.833 411.000 158.461 411.000 158.861 C 411.000 159.260 413.626 162.287 416.836 165.588 C 420.213 169.060 424.060 174.408 425.964 178.275 C 428.870 184.178 431.000 186.081 431.000 182.774 C 431.000 182.165 430.699 181.967 430.332 182.335 C 429.965 182.702 427.966 179.927 425.891 176.169 C 423.815 172.410 419.728 166.924 416.809 163.977 C 413.889 161.030 412.400 158.980 413.500 159.420 C 414.600 159.861 416.175 160.285 417.000 160.361 C 417.825 160.437 417.485 160.131 416.245 159.681 C 414.094 158.900 414.233 158.639 419.245 154.042 C 422.135 151.391 425.605 147.458 426.955 145.302 L 429.411 141.383 436.455 148.573 C 440.330 152.527 444.353 156.207 445.395 156.752 C 447.142 157.664 446.984 158.021 443.395 161.278 C 441.253 163.223 438.680 166.318 437.677 168.157 L 435.854 171.500 437.991 169.000 C 439.167 167.625 442.000 164.542 444.287 162.150 L 448.446 157.800 445.473 155.707 C 441.693 153.047 432.868 144.216 430.958 141.185 C 429.507 138.881 429.484 138.897 426.136 144.421 "/></g>
<g fill="#FCFCFCFD" stroke="#FCFCFCFD">
<path d="M 421.920 137.179 C 420.589 140.024 417.899 144.019 415.942 146.058 C 412.410 149.736 405.318 154.000 402.731 154.000 C 401.989 154.000 400.555 154.605 399.544 155.344 C 397.206 157.054 398.126 161.588 400.995 162.498 C 404.766 163.695 413.030 171.077 416.574 176.413 C 418.527 179.355 421.236 184.853 422.593 188.631 C 423.951 192.409 424.825 193.995 424.537 192.156 C 423.727 186.990 418.503 176.853 414.037 171.779 C 411.818 169.259 407.502 165.536 404.446 163.508 C 398.910 159.833 397.857 157.529 401.000 155.970 C 401.825 155.561 404.892 154.185 407.816 152.911 C 410.740 151.638 414.662 148.903 416.531 146.834 C 419.859 143.150 425.523 133.190 424.737 132.403 C 424.518 132.185 423.250 134.334 421.920 137.179 "/></g>
<g fill="#FCFCFCFD" stroke="#FCFCFCFD">
<path d="M 77.634 73.250 C 76.176 76.138 75.710 77.600 76.597 76.500 C 77.485 75.400 78.768 73.226 79.449 71.669 L 80.688 68.838 83.959 73.936 C 87.281 79.113 99.403 91.000 101.360 91.000 C 101.950 91.000 100.160 93.363 97.383 96.250 C 91.934 101.916 85.365 111.698 86.348 112.681 C 86.681 113.014 87.264 112.434 87.645 111.393 C 88.868 108.046 94.157 100.629 98.657 95.949 L 103.034 91.397 98.392 87.949 C 93.713 84.473 86.481 76.316 83.293 70.919 C 82.345 69.314 81.280 68.000 80.926 68.000 C 80.573 68.000 79.091 70.363 77.634 73.250 "/></g>
<g fill="#FCFCFCFD" stroke="#FCFCFCFD">
<path d="M 63.510 416.984 C 63.165 417.543 63.292 418.000 63.793 418.000 C 64.296 418.000 65.013 428.428 65.392 441.250 C 65.769 454.038 66.480 466.975 66.970 470.000 L 67.862 475.500 67.432 469.500 C 67.195 466.200 66.712 453.024 66.358 440.221 C 65.767 418.796 65.208 414.237 63.510 416.984 "/></g>
<g fill="#FCFCFCFD" stroke="#FCFCFCFD">
<path d="M 154.283 116.588 C 144.985 124.136 145.133 124.002 139.437 130.089 C 133.658 136.266 122.282 150.988 121.813 152.897 C 121.641 153.599 124.272 150.421 127.660 145.836 C 134.488 136.598 145.264 125.307 154.641 117.568 C 158.019 114.781 160.847 112.181 160.925 111.791 C 161.003 111.400 158.014 113.559 154.283 116.588 "/></g>
<g fill="#FCFCFCFD" stroke="#FCFCFCFD">
<path d="M 47.015 93.553 C 47.007 94.132 49.659 96.481 52.908 98.773 C 62.503 105.539 68.607 114.183 73.136 127.417 C 74.658 131.863 75.924 134.783 75.951 133.907 C 76.023 131.572 72.673 122.261 69.531 116.060 C 66.418 109.919 58.894 101.555 52.702 97.356 C 50.391 95.788 48.169 94.054 47.765 93.503 C 47.283 92.844 47.025 92.861 47.015 93.553 "/></g>
<g fill="#FCFCFCFD" stroke="#FCFCFCFD">
<path d="M 70.239 83.990 C 69.553 85.087 66.475 87.656 63.397 89.700 L 57.801 93.415 62.234 97.458 C 68.457 103.133 72.505 108.703 76.571 117.184 C 78.500 121.208 79.784 123.375 79.425 122.000 C 77.948 116.349 71.249 105.352 65.791 99.617 L 59.969 93.500 62.735 91.501 C 67.622 87.970 73.243 82.581 72.350 82.283 C 71.874 82.125 70.924 82.892 70.239 83.990 "/></g>
<g fill="#FCFCFCFD" stroke="#FCFCFCFD">
<path d="M 31.803 370.511 C 32.360 371.617 33.756 373.375 34.907 374.416 C 36.058 375.458 37.000 376.867 37.000 377.548 C 37.000 378.229 37.654 379.037 38.454 379.344 C 41.108 380.362 54.828 391.466 55.969 393.519 C 56.833 395.074 56.736 396.388 55.545 399.237 C 54.695 401.271 54.052 403.963 54.116 405.218 C 54.218 407.232 54.284 407.265 54.676 405.500 C 54.920 404.400 55.783 401.765 56.594 399.645 C 57.405 397.524 57.798 394.938 57.467 393.897 C 57.137 392.856 53.079 389.047 48.449 385.431 C 43.819 381.816 37.952 376.528 35.412 373.679 C 32.871 370.831 31.247 369.405 31.803 370.511 "/></g>
<g fill="#FCFCFCFD" stroke="#FCFCFCFD">
<path d="M 332.000 108.299 C 332.000 108.529 334.588 110.426 337.750 112.516 C 344.565 117.018 357.572 129.352 363.371 136.810 C 366.784 141.200 367.153 141.471 365.500 138.372 C 362.776 133.267 347.742 118.248 340.450 113.347 C 333.231 108.495 332.000 107.760 332.000 108.299 "/></g>
<g fill="#FCFCFCFD" stroke="#FCFCFCFD">
<path d="M 216.500 88.667 C 201.146 92.004 178.998 99.331 180.307 100.640 C 180.532 100.866 182.918 100.101 185.608 98.941 C 193.001 95.754 204.567 92.295 213.500 90.600 C 225.413 88.339 225.799 88.232 222.000 88.232 C 220.075 88.232 217.600 88.428 216.500 88.667 "/></g>
<g fill="#FCFCFCFD" stroke="#FCFCFCFD">
<path d="M 82.701 263.428 C 80.459 277.666 77.928 280.891 63.275 288.180 L 52.580 293.500 62.869 289.026 C 78.083 282.411 82.669 276.611 83.279 263.214 L 83.500 258.356 82.701 263.428 "/></g>
<g fill="#FCFCFCFD" stroke="#FCFCFCFD">
<path d="M 107.057 96.354 C 104.063 98.649 99.549 103.556 97.025 107.258 C 92.721 113.571 86.348 127.681 87.348 128.682 C 87.597 128.930 88.357 127.416 89.038 125.317 C 93.147 112.639 102.283 99.800 110.314 95.418 C 111.861 94.574 112.986 93.500 112.814 93.032 C 112.641 92.564 110.051 94.059 107.057 96.354 "/></g>
<g fill="#FCFCFCFD" stroke="#FCFCFCFD">
<path d="M 387.461 181.750 C 389.516 187.077 394.518 205.554 396.540 215.285 C 397.821 221.453 398.895 225.375 398.926 224.000 C 399.052 218.371 388.970 180.000 387.364 180.000 C 387.046 180.000 387.090 180.788 387.461 181.750 "/></g>
<g fill="#493425FD" stroke="#493425FD">
<path d="M 222.465 228.057 C 221.286 229.964 222.938 234.000 224.897 234.000 C 227.470 234.000 229.294 231.503 228.515 229.048 C 227.818 226.852 223.633 226.166 222.465 228.057 "/></g>
<g fill="#FCFCFCFD" stroke="#FCFCFCFD">
<path d="M 43.714 298.667 C 35.963 303.971 26.888 313.338 23.980 319.038 C 20.819 325.234 21.685 324.907 25.561 318.441 C 30.259 310.603 35.521 305.340 44.601 299.401 C 48.704 296.717 51.710 294.409 51.281 294.272 C 50.851 294.136 47.446 296.113 43.714 298.667 "/></g>
<g fill="#FCFCFCFD" stroke="#FCFCFCFD">
<path d="M 87.659 67.115 C 91.160 73.548 99.443 82.029 105.702 85.588 C 108.341 87.089 111.063 89.007 111.750 89.850 C 112.558 90.840 113.000 90.952 113.000 90.167 C 113.000 89.498 110.863 87.724 108.250 86.225 C 102.049 82.667 90.791 71.471 88.089 66.174 C 86.917 63.878 85.715 62.000 85.417 62.000 C 85.119 62.000 86.128 64.302 87.659 67.115 "/></g>
<g fill="#493425FD" stroke="#493425FD">
<path d="M 237.425 230.443 C 236.665 233.470 237.537 235.000 240.024 235.000 C 242.519 235.000 244.137 231.996 242.866 229.724 C 241.415 227.132 238.147 227.564 237.425 230.443 "/></g>
<g fill="#FCFCFCFD" stroke="#FCFCFCFD">
<path d="M 453.268 162.945 C 446.105 167.811 438.681 178.080 436.600 186.000 C 436.238 187.375 437.603 185.129 439.633 181.008 C 442.975 174.224 447.941 168.377 456.673 160.945 C 457.678 160.090 456.145 160.990 453.268 162.945 "/></g>
<g fill="#FCFCFCFD" stroke="#FCFCFCFD">
<path d="M 282.500 90.434 C 288.550 91.701 295.939 93.470 298.920 94.366 C 301.901 95.261 304.532 95.802 304.766 95.567 C 305.904 94.429 278.868 87.908 273.662 88.065 C 272.473 88.101 276.450 89.167 282.500 90.434 "/></g>
<g fill="#FCFCFCFD" stroke="#FCFCFCFD">
<path d="M 427.500 289.892 C 436.345 292.471 443.905 296.662 449.122 301.878 L 453.743 306.500 450.397 302.370 C 448.556 300.099 444.901 296.872 442.275 295.198 C 437.331 292.048 426.401 287.947 423.282 288.071 C 422.302 288.110 424.200 288.930 427.500 289.892 "/></g>
<g fill="#FCFCFCFD" stroke="#FCFCFCFD">
<path d="M 436.695 137.856 C 439.039 142.213 447.688 150.125 453.180 152.936 C 455.556 154.152 458.063 155.875 458.750 156.765 C 459.438 157.654 460.000 157.916 460.000 157.346 C 460.000 155.975 457.362 153.844 452.702 151.450 C 448.629 149.359 442.243 143.628 437.695 137.982 L 434.890 134.500 436.695 137.856 "/></g>
<g fill="#FCFCFCFD" stroke="#FCFCFCFD">
<path d="M 401.432 277.705 L 401.500 285.416 405.055 286.152 C 407.010 286.557 411.341 287.025 414.681 287.194 C 419.576 287.441 418.944 287.234 411.416 286.127 L 402.080 284.753 401.722 277.373 L 401.365 269.993 401.432 277.705 "/></g>
<g fill="#FCFCFCFD" stroke="#FCFCFCFD">
<path d="M 85.118 135.014 C 83.385 141.892 82.307 144.000 80.524 144.000 C 78.812 144.000 77.912 142.640 76.943 138.587 C 76.403 136.331 76.177 136.088 76.102 137.685 C 76.046 138.887 76.450 141.054 77.000 142.501 C 77.789 144.576 78.563 145.066 80.656 144.816 C 82.717 144.571 83.604 143.651 84.618 140.709 C 85.336 138.624 86.053 135.255 86.212 133.223 C 86.439 130.311 86.207 130.691 85.118 135.014 "/></g>
<g fill="#FCFCFCFD" stroke="#FCFCFCFD">
<path d="M 401.284 255.317 C 401.568 262.366 402.067 268.400 402.393 268.726 C 402.719 269.053 402.717 263.510 402.389 256.410 C 402.060 249.309 401.561 243.275 401.279 243.000 C 400.998 242.725 401.000 248.267 401.284 255.317 "/></g>
<g fill="#FCFCFCFD" stroke="#FCFCFCFD">
<path d="M 66.271 77.936 C 63.696 80.911 59.588 84.076 55.771 86.025 C 51.917 87.992 50.656 88.967 52.500 88.552 C 57.927 87.333 69.515 78.077 70.239 74.383 C 70.382 73.649 68.597 75.248 66.271 77.936 "/></g>
<g fill="#FCFCFCFD" stroke="#FCFCFCFD">
<path d="M 118.750 156.788 C 117.788 157.816 117.000 158.905 117.000 159.207 C 117.000 159.509 114.950 163.462 112.446 167.990 C 109.941 172.519 108.085 176.418 108.322 176.655 C 108.559 176.892 110.225 174.254 112.025 170.793 C 113.825 167.332 116.349 162.831 117.634 160.792 C 120.543 156.179 121.060 154.320 118.750 156.788 "/></g>
<g fill="#FCFCFCFD" stroke="#FCFCFCFD">
<path d="M 433.423 195.257 C 431.900 200.202 431.042 201.565 429.295 201.814 C 427.546 202.062 426.893 201.443 426.135 198.814 C 425.283 195.857 425.171 195.775 425.090 198.050 C 424.903 203.355 430.964 205.083 432.805 200.250 C 434.759 195.123 436.201 189.868 435.773 189.440 C 435.538 189.205 434.481 191.823 433.423 195.257 "/></g>
<g fill="#FCFCFCFD" stroke="#FCFCFCFD">
<path d="M 76.635 58.017 C 75.937 59.676 75.035 60.702 74.630 60.297 C 74.226 59.892 74.176 60.294 74.520 61.190 C 74.863 62.086 74.437 64.188 73.572 65.860 C 71.785 69.316 71.530 70.870 72.989 69.411 C 73.533 68.867 74.804 65.992 75.814 63.023 C 78.011 56.557 80.421 54.563 82.559 57.441 C 83.351 58.509 84.000 58.936 84.000 58.391 C 84.000 56.795 81.751 55.000 79.752 55.000 C 78.643 55.000 77.396 56.207 76.635 58.017 "/></g>
<g fill="#FCFCFCFD" stroke="#FCFCFCFD">
<path d="M 19.223 337.500 C 19.184 340.800 19.799 345.075 20.590 347.000 C 21.381 348.925 21.756 349.375 21.423 348.000 C 21.090 346.625 20.474 342.350 20.055 338.500 L 19.293 331.500 19.223 337.500 "/></g>
<g fill="#FCFCFCFD" stroke="#FCFCFCFD">
<path d="M 380.301 164.949 C 382.575 169.871 384.601 173.732 384.804 173.530 C 385.259 173.075 377.316 156.000 376.649 156.000 C 376.384 156.000 378.028 160.027 380.301 164.949 "/></g>
<g fill="#FCFCFCFD" stroke="#FCFCFCFD">
<path d="M 437.687 447.000 C 438.002 451.125 438.427 454.688 438.630 454.917 C 439.368 455.748 438.778 444.434 437.957 442.000 C 437.438 440.462 437.334 442.385 437.687 447.000 "/></g>
<g fill="#FCFCFCFD" stroke="#FCFCFCFD">
<path d="M 459.703 329.000 C 458.411 339.686 458.433 340.792 459.815 334.777 C 460.539 331.629 460.986 327.579 460.810 325.777 C 460.581 323.438 460.264 324.360 459.703 329.000 "/></g>
<g fill="#FCFCFCFD" stroke="#FCFCFCFD">
<path d="M 103.181 187.347 C 101.355 191.663 100.045 195.378 100.269 195.603 C 100.731 196.065 106.500 182.104 106.500 180.524 C 106.500 179.961 105.006 183.031 103.181 187.347 "/></g>
<g fill="#FCFCFCFD" stroke="#FCFCFCFD">
<path d="M 86.000 244.500 C 85.316 248.124 84.955 251.288 85.198 251.531 C 85.440 251.774 86.223 249.031 86.938 245.438 C 87.652 241.844 88.013 238.680 87.740 238.407 C 87.467 238.134 86.684 240.876 86.000 244.500 "/></g>
<g fill="#FCFCFCFD" stroke="#FCFCFCFD">
<path d="M 97.111 203.138 C 95.950 206.576 95.033 209.863 95.074 210.444 C 95.115 211.025 96.237 208.384 97.567 204.576 C 98.898 200.768 99.814 197.480 99.604 197.270 C 99.393 197.060 98.272 199.701 97.111 203.138 "/></g>
<g fill="#FCFCFCFD" stroke="#FCFCFCFD">
<path d="M 322.500 103.520 C 324.700 104.872 327.566 106.321 328.869 106.739 C 330.172 107.158 328.767 106.038 325.747 104.250 C 322.727 102.463 319.861 101.014 319.378 101.031 C 318.895 101.048 320.300 102.169 322.500 103.520 "/></g>
<g fill="#FCFCFCFD" stroke="#FCFCFCFD">
<path d="M 426.238 128.162 C 425.557 128.843 425.014 129.873 425.030 130.450 C 425.047 131.028 425.519 130.713 426.080 129.750 C 427.595 127.148 430.729 127.630 432.583 130.750 L 434.217 133.500 432.859 130.500 C 431.397 127.272 428.242 126.158 426.238 128.162 "/></g>
<g fill="#FCFCFCFD" stroke="#FCFCFCFD">
<path d="M 171.000 105.023 C 164.726 109.048 165.366 109.552 171.934 105.760 C 174.923 104.034 176.948 102.513 176.434 102.379 C 175.920 102.246 173.475 103.435 171.000 105.023 "/></g>
<g fill="#FCFCFCFD" stroke="#FCFCFCFD">
<path d="M 422.816 153.797 C 421.911 153.971 420.930 154.740 420.636 155.506 C 420.262 156.482 420.610 156.708 421.801 156.262 C 423.337 155.687 423.356 155.807 422.000 157.515 C 420.586 159.297 420.614 159.322 422.500 157.952 C 424.917 156.197 425.134 153.351 422.816 153.797 "/></g>
<g fill="#FCFCFCFD" stroke="#FCFCFCFD">
<path d="M 371.690 148.771 C 375.194 154.396 375.300 154.483 373.000 149.859 C 371.625 147.094 369.911 144.342 369.190 143.744 C 368.470 143.145 369.595 145.408 371.690 148.771 "/></g>
<g fill="#FCFCFCFD" stroke="#FCFCFCFD">
<path d="M 82.507 120.635 C 81.410 123.311 80.526 125.950 80.541 126.500 C 80.581 128.015 84.081 119.774 84.305 117.635 C 84.412 116.610 83.603 117.960 82.507 120.635 "/></g>
<g fill="#FCFCFCFD" stroke="#FCFCFCFD">
<path d="M 311.418 98.541 C 314.672 99.893 317.495 100.838 317.691 100.642 C 318.156 100.177 308.070 95.987 306.617 96.042 C 306.002 96.066 308.163 97.190 311.418 98.541 "/></g>
<g fill="#FCFCFCFD" stroke="#FCFCFCFD">
<path d="M 455.432 311.491 C 457.142 315.583 458.926 318.783 458.970 317.833 C 459.022 316.677 455.097 308.000 454.522 308.000 C 454.220 308.000 454.629 309.571 455.432 311.491 "/></g>
<g fill="#FCFCFCFD" stroke="#FCFCFCFD">
<path d="M 433.250 175.710 C 432.013 178.026 431.002 180.276 431.004 180.710 C 431.010 182.053 434.858 175.264 435.188 173.327 C 435.360 172.322 434.488 173.395 433.250 175.710 "/></g>
<g fill="#FCFCFCFD" stroke="#FCFCFCFD">
<path d="M 55.000 412.287 C 55.000 413.552 59.415 416.998 60.939 416.921 C 62.285 416.853 62.293 416.767 61.000 416.294 C 60.175 415.992 58.488 414.824 57.250 413.698 C 56.013 412.573 55.000 411.937 55.000 412.287 "/></g>
<g fill="#FCFCFCFD" stroke="#FCFCFCFD">
<path d="M 24.000 356.327 C 24.000 356.752 24.788 358.539 25.750 360.300 C 26.765 362.155 27.356 362.675 27.157 361.536 C 26.809 359.544 24.000 354.909 24.000 356.327 "/></g>
<g fill="#FCFCFCFD" stroke="#FCFCFCFD">
<path d="M 89.641 228.822 C 89.184 230.648 89.078 232.411 89.405 232.738 C 89.952 233.286 90.222 231.802 90.403 227.250 C 90.441 226.288 90.098 226.995 89.641 228.822 "/></g>
<g fill="#FCFCFCFD" stroke="#FCFCFCFD">
<path d="M 69.742 97.591 C 69.400 97.933 69.918 99.069 70.894 100.116 C 72.629 101.979 72.662 101.971 72.417 99.760 C 72.279 98.517 72.122 97.950 72.068 98.500 C 72.014 99.050 71.608 98.931 71.166 98.235 C 70.725 97.539 70.084 97.250 69.742 97.591 "/></g>
<g fill="#FCFCFCFD" stroke="#FCFCFCFD">
<path d="M 20.574 327.297 C 20.126 328.835 20.039 330.372 20.380 330.713 C 20.929 331.262 21.198 329.875 21.344 325.750 C 21.369 325.063 21.022 325.758 20.574 327.297 "/></g>
<g fill="#FCFCFCFD" stroke="#FCFCFCFD">
<path d="M 430.667 149.667 C 430.352 149.981 430.695 150.838 431.429 151.571 C 432.162 152.305 433.019 152.648 433.333 152.333 C 433.648 152.019 433.305 151.162 432.571 150.429 C 431.838 149.695 430.981 149.352 430.667 149.667 "/></g>
</svg>
